<svg width="55" height="39" viewBox="0 0 55 39" fill="none" xmlns="http://www.w3.org/2000/svg">
<path d="M28.9346 32.1854L42.1643 21.0596L36.9669 35.3912H30.2575L28.9346 32.1854Z" fill="white"/>
<path d="M25.9866 32.1854L12.7568 21.0596L17.9542 35.3912H24.6636L25.9866 32.1854Z" fill="white"/>
<path d="M32.2994 35.3914C33.1767 35.3914 33.8879 34.6817 33.8879 33.8064C33.8879 32.931 33.1767 32.2214 32.2994 32.2214C31.4222 32.2214 30.7109 32.931 30.7109 33.8064C30.7109 34.6817 31.4222 35.3914 32.2994 35.3914Z" fill="#02C100"/>
<path d="M22.5378 35.3914C23.4151 35.3914 24.1262 34.6817 24.1262 33.8064C24.1262 32.931 23.4151 32.2214 22.5378 32.2214C21.6604 32.2214 20.9492 32.931 20.9492 33.8064C20.9492 34.6817 21.6604 35.3914 22.5378 35.3914Z" fill="#02C100"/>
<path d="M26.7801 36.9319H25.9873V38.4932H26.7801V36.9319Z" fill="white"/>
<path d="M28.9334 36.9319H28.1406V38.4932H28.9334V36.9319Z" fill="white"/>
<path d="M27.4381 5.16479C18.1397 5.16479 10.2489 11.177 7.4569 19.5177H2.25879V32.8412H7.4569H8.78323V26.7974V25.5615C9.10996 15.5621 17.3368 7.55595 27.4381 7.55595C37.7467 7.55595 46.1034 15.894 46.1034 26.1795V32.8412H47.4193H52.6278V19.5177H47.4193C44.6273 11.177 36.7365 5.16479 27.4381 5.16479Z" fill="white"/>
<path d="M54.8861 21.3394H53.2031V31.0196H54.8861V21.3394Z" fill="white"/>
<path d="M1.68293 21.3394H0V31.0196H1.68293V21.3394Z" fill="white"/>
<path d="M38.6045 0.0537475C39.5272 1.73539 39.9257 3.69854 39.7316 5.60589C42.2956 4.57186 44.43 2.51869 45.5593 0C47.1585 3.50254 47.0842 7.72328 45.3624 11.1675C44.9785 11.9352 44.392 12.7467 43.5349 12.8146C42.7513 12.8768 42.0866 12.2931 41.4841 11.7894C39.1901 9.87097 36.421 8.6482 33.5652 7.82279C32.3928 7.48392 25.6008 6.60933 25.5762 5.81476C28.0521 5.39605 30.3671 5.21619 32.7195 4.1779C33.3458 3.90155 39.015 0.802024 38.6045 0.0537475Z" fill="white"/>
</svg>
