<svg xmlns="http://www.w3.org/2000/svg" viewBox="0 0 352.16 50.62"><defs><style>.cls-1{fill:#ffa600;}.cls-2{fill:#ffdf40;}.cls-3{fill:#635947;}</style></defs><g id="Layer_2" data-name="Layer 2"><g id="OBJECTS"><polygon class="cls-1" points="25.43 2.25 33.29 18.17 50.86 20.72 38.14 33.12 41.14 50.62 25.43 42.35 9.71 50.62 12.71 33.12 0 20.72 17.57 18.17 25.43 2.25"/><polygon class="cls-2" points="25.43 28.86 25.43 2.25 33.29 18.17 25.43 28.86"/><polygon class="cls-2" points="25.43 28.86 33.29 18.17 50.86 20.72 25.43 28.86"/><polygon class="cls-2" points="25.43 28.86 38.14 33.12 41.14 50.62 25.43 28.86"/><path class="cls-2" d="M25.43,28.86V42.35L9.71,50.62S26.48,28,25.43,28.86Z"/><polygon class="cls-2" points="25.43 28.86 0 20.72 17.57 18.17 25.43 28.86"/><polygon class="cls-3" points="99.16 0 107.02 15.92 124.59 18.48 111.87 30.87 114.88 48.37 99.16 40.11 83.44 48.37 86.44 30.87 73.73 18.48 91.3 15.92 99.16 0"/><polygon class="cls-3" points="175.02 0 182.88 15.92 200.45 18.48 187.73 30.87 190.73 48.37 175.02 40.11 159.3 48.37 162.3 30.87 149.59 18.48 167.16 15.92 175.02 0"/><polygon class="cls-3" points="250.88 0 258.73 15.92 276.3 18.48 263.59 30.87 266.59 48.37 250.88 40.11 235.16 48.37 238.16 30.87 225.45 18.48 243.02 15.92 250.88 0"/><polygon class="cls-3" points="326.73 0 334.59 15.92 352.16 18.48 339.45 30.87 342.45 48.37 326.73 40.11 311.02 48.37 314.02 30.87 301.31 18.48 318.88 15.92 326.73 0"/></g></g></svg>