<svg xmlns="http://www.w3.org/2000/svg" viewBox="0 0 352.16 48.37"><defs><style>.cls-1{fill:#ffa600;}.cls-2{fill:#ffdf40;}</style></defs><g id="Layer_2" data-name="Layer 2"><g id="OBJECTS"><polygon class="cls-1" points="25.43 0 33.29 15.92 50.86 18.48 38.14 30.87 41.14 48.37 25.43 40.11 9.71 48.37 12.71 30.87 0 18.48 17.57 15.92 25.43 0"/><polygon class="cls-2" points="25.43 26.62 25.43 0 33.29 15.92 25.43 26.62"/><polygon class="cls-2" points="25.43 26.62 33.29 15.92 50.86 18.48 25.43 26.62"/><polygon class="cls-2" points="25.43 26.62 38.14 30.87 41.14 48.37 25.43 26.62"/><path class="cls-2" d="M25.43,26.62V40.11L9.71,48.37S26.48,25.74,25.43,26.62Z"/><polygon class="cls-2" points="25.43 26.62 0 18.48 17.57 15.92 25.43 26.62"/><polygon class="cls-1" points="101.29 0 109.14 15.92 126.72 18.48 114 30.87 117 48.37 101.29 40.11 85.57 48.37 88.57 30.87 75.86 18.48 93.43 15.92 101.29 0"/><polygon class="cls-2" points="101.29 26.62 101.29 0 109.14 15.92 101.29 26.62"/><polygon class="cls-2" points="101.29 26.62 109.14 15.92 126.72 18.48 101.29 26.62"/><polygon class="cls-2" points="101.29 26.62 114 30.87 117 48.37 101.29 26.62"/><path class="cls-2" d="M101.29,26.62V40.11L85.57,48.37S102.34,25.74,101.29,26.62Z"/><polygon class="cls-2" points="101.29 26.62 75.86 18.48 93.43 15.92 101.29 26.62"/><polygon class="cls-1" points="177.15 0 185 15.92 202.57 18.48 189.86 30.87 192.86 48.37 177.15 40.11 161.43 48.37 164.43 30.87 151.72 18.48 169.29 15.92 177.15 0"/><polygon class="cls-2" points="177.15 26.62 177.15 0 185 15.92 177.15 26.62"/><polygon class="cls-2" points="177.15 26.62 185 15.92 202.57 18.48 177.15 26.62"/><polygon class="cls-2" points="177.15 26.62 189.86 30.87 192.86 48.37 177.15 26.62"/><path class="cls-2" d="M177.14,26.62V40.11l-15.71,8.26S178.2,25.74,177.14,26.62Z"/><polygon class="cls-2" points="177.15 26.62 151.72 18.48 169.29 15.92 177.15 26.62"/><polygon class="cls-1" points="253 0 260.86 15.92 278.43 18.48 265.72 30.87 268.72 48.37 253 40.11 237.29 48.37 240.29 30.87 227.57 18.48 245.15 15.92 253 0"/><polygon class="cls-2" points="253 26.62 253 0 260.86 15.92 253 26.62"/><polygon class="cls-2" points="253 26.62 260.86 15.92 278.43 18.48 253 26.62"/><polygon class="cls-2" points="253 26.62 265.72 30.87 268.72 48.37 253 26.62"/><path class="cls-2" d="M253,26.62V40.11l-15.71,8.26S254.06,25.74,253,26.62Z"/><polygon class="cls-2" points="253 26.62 227.57 18.48 245.15 15.92 253 26.62"/><polygon class="cls-1" points="326.73 0 334.59 15.92 352.16 18.48 339.45 30.87 342.45 48.37 326.73 40.11 311.02 48.37 314.02 30.87 301.31 18.48 318.88 15.92 326.73 0"/><polygon class="cls-2" points="326.73 26.62 326.73 0 334.59 15.92 326.73 26.62"/><polygon class="cls-2" points="326.73 26.62 334.59 15.92 352.16 18.48 326.73 26.62"/><polygon class="cls-2" points="326.73 26.62 339.45 30.87 342.45 48.37 326.73 26.62"/><path class="cls-2" d="M326.73,26.62V40.11L311,48.37S327.79,25.74,326.73,26.62Z"/><polygon class="cls-2" points="326.73 26.62 301.31 18.48 318.88 15.92 326.73 26.62"/></g></g></svg>