<?xml version="1.0" encoding="utf-8"?>
<!-- Generator: Adobe Illustrator 25.0.0, SVG Export Plug-In . SVG Version: 6.00 Build 0)  -->
<svg version="1.1" id="Layer_1" xmlns="http://www.w3.org/2000/svg" xmlns:xlink="http://www.w3.org/1999/xlink" x="0px" y="0px"
	 viewBox="0 0 800 800" style="enable-background:new 0 0 800 800;" xml:space="preserve">
<style type="text/css">
	.st0{fill:#FFFFFF;}
</style>
<path class="st0" d="M748.3,348c-30.7-35.5-72.1-59.8-117.7-69.1c-31.4-105.4-128.3-178.2-239.3-178.2c-56.6,0-112,19.5-156.1,54.8
	c-40.9,32.8-70.6,78-84.5,128.1C61.5,310.6,0,392.8,0,486.9C0,604,95.3,699.3,212.4,699.3H590c0.4,0,0.8,0,1.3,0
	c55.8-1,108.1-23.3,147.4-63c39.6-40,61.4-93,61.4-149.3C800,435.9,781.6,386.6,748.3,348z"/>
</svg>
