<svg width="30" height="30" viewBox="0 0 30 30" fill="none" xmlns="http://www.w3.org/2000/svg">
<path fill-rule="evenodd" clip-rule="evenodd" d="M14.1497 0.0346688C5.69143 0.605183 -0.50211 7.69858 0.0320986 15.9373C0.550748 23.902 7.30615 30.5036 15.946 29.9676C23.8986 29.4749 30.5209 22.6244 29.9677 14.0693C29.4594 6.19536 22.6711 -0.543625 14.1497 0.0346688Z" fill="white"/>
<path fill-rule="evenodd" clip-rule="evenodd" d="M20.0407 8.51111V5.19521H17.2314C15.7618 5.1883 14.4929 5.42342 13.5221 6.45813C11.8979 8.18696 12.1961 10.2823 12.1814 13.0363L8.76008 13.0674L8.73502 16.8804H12.1486L12.1884 26.3189H16.2606L16.2883 16.9219L19.2835 16.8821L19.9093 13.0726L16.2935 13.0657C16.2675 12.0068 16.0514 9.95382 16.6219 9.26229C17.0887 8.6935 17.6964 8.54569 18.4078 8.51371H20.0424" fill="#231F20"/>
</svg>
