<svg width="30" height="30" viewBox="0 0 30 30" fill="none" xmlns="http://www.w3.org/2000/svg">
<path fill-rule="evenodd" clip-rule="evenodd" d="M13.6378 0.0497341C5.8098 0.694594 -0.540629 7.21343 0.0365286 15.7853C0.555294 23.494 7.33732 29.9418 15.7408 29.3299C23.4977 28.7655 29.9489 22.0706 29.3193 13.5647C28.7548 5.96095 22.0311 -0.640824 13.6378 0.0497341Z" fill="white"/>
<path fill-rule="evenodd" clip-rule="evenodd" d="M9.84067 7.01367C9.37296 7.09151 8.92601 7.2638 8.52706 7.52001C8.12811 7.77623 7.78553 8.11102 7.52019 8.50396C6.86348 9.47125 6.92018 10.5096 6.92018 11.823C6.92018 13.1847 6.83555 18.6541 6.98534 19.5554C7.16475 20.6556 7.86377 21.4172 8.54502 21.8734C9.52839 22.5275 10.5998 22.4218 11.9073 22.4218C13.2342 22.4218 18.7671 22.5123 19.6295 22.3447C20.0863 22.2537 20.5202 22.072 20.9055 21.8103C21.2909 21.5487 21.6198 21.2124 21.873 20.8215C22.5034 19.8694 22.4222 18.8344 22.4222 17.5388C22.4222 16.3159 22.4967 10.5993 22.3824 9.87746C22.1988 8.72991 21.5294 8.00042 20.849 7.53159C19.9248 6.89435 18.7917 6.94935 17.5265 6.94935C16.219 6.94935 10.6785 6.86473 9.84067 7.01452" fill="white"/>
<path fill-rule="evenodd" clip-rule="evenodd" d="M14.127 11.3941C12.4658 11.692 11.0068 13.2483 11.3614 15.2709C11.6517 16.9245 13.2596 18.3877 15.2864 18.0204C16.902 17.7285 18.3804 16.1028 17.9886 14.0734C17.6814 12.4892 16.1361 11.0344 14.127 11.3941Z" fill="white"/>
<path fill-rule="evenodd" clip-rule="evenodd" d="M19.82 8.58863C20.0415 8.58812 20.2582 8.65336 20.4427 8.77608C20.6271 8.8988 20.771 9.07348 20.8562 9.27802C20.9413 9.48256 20.9638 9.70776 20.9209 9.92511C20.878 10.1425 20.7716 10.3422 20.6151 10.499C20.4586 10.6559 20.2591 10.7628 20.0419 10.8062C19.8246 10.8496 19.5994 10.8275 19.3946 10.7429C19.1899 10.6582 19.0149 10.5147 18.8917 10.3305C18.7686 10.1464 18.7029 9.92979 18.7029 9.70824C18.7029 9.4113 18.8208 9.12652 19.0308 8.91655C19.2408 8.70659 19.5256 8.58863 19.8225 8.58863" fill="#231F20"/>
<path fill-rule="evenodd" clip-rule="evenodd" d="M19.7082 14.6885C19.7084 13.698 19.4148 12.7296 18.8646 11.9059C18.3144 11.0822 17.5322 10.4401 16.6171 10.0609C15.702 9.68173 14.695 9.58243 13.7234 9.77557C12.7519 9.96872 11.8594 10.4456 11.1589 11.146C10.4584 11.8464 9.98132 12.7388 9.78801 13.7103C9.59469 14.6818 9.69383 15.6889 10.0729 16.6041C10.4519 17.5192 11.0938 18.3015 11.9174 18.8518C12.7411 19.4022 13.7094 19.6959 14.7 19.6959C16.0281 19.6959 17.3018 19.1684 18.241 18.2293C19.1802 17.2903 19.708 16.0167 19.7082 14.6885ZM14.127 11.394C14.6051 11.3025 15.0976 11.3205 15.5677 11.4467C16.0377 11.5729 16.4731 11.804 16.841 12.1226C17.3698 12.5628 17.7493 13.1558 17.9276 13.8203C17.9513 13.9049 17.9716 13.9895 17.9886 14.0741C18.3804 16.1052 16.902 17.7292 15.2864 18.0212C13.2596 18.3884 11.6517 16.9252 11.3614 15.2716C11.0711 13.618 11.9978 12.269 13.2571 11.6741C13.4552 11.5794 13.6621 11.5042 13.8748 11.4498C13.9595 11.4287 14.0441 11.4101 14.1287 11.3948" fill="#231F20"/>
<path fill-rule="evenodd" clip-rule="evenodd" d="M15.0842 5.30762C14.54 5.30762 13.984 5.30762 13.4466 5.30762C11.6695 5.31185 10.0963 5.33047 9.75859 5.37786C7.32471 5.71637 5.37744 7.64756 5.30804 10.271C5.27588 11.4846 5.24711 18.8776 5.34613 19.6418C5.65671 22.0401 7.66491 23.929 10.2545 24.0424C10.703 24.0619 12.1112 24.0763 13.7081 24.0796H15.1824C17.2337 24.0754 19.2157 24.0517 19.616 23.9992C20.82 23.8463 21.9294 23.2672 22.7432 22.3667C23.557 21.4663 24.0214 20.3042 24.0521 19.0909C24.0699 18.5484 24.0851 16.8059 24.086 14.956V14.4643C24.086 12.3004 24.0631 10.1322 24.0056 9.70654C23.8357 8.51229 23.2468 7.41731 22.3441 6.61711C21.4415 5.81691 20.2838 5.36359 19.0777 5.33808C18.5336 5.32539 16.8664 5.311 15.0842 5.30762ZM12.0579 6.92992C12.8839 6.92315 13.8266 6.92992 14.7067 6.92992H18.8721C19.4521 6.9293 20.0233 7.07173 20.535 7.3446C20.6432 7.39954 20.7475 7.46174 20.8473 7.53077L20.8922 7.56209C21.0103 7.64216 21.1234 7.72949 21.2307 7.82359C21.8134 8.31531 22.2116 8.99069 22.3596 9.7387C22.4149 9.98683 22.4433 10.2402 22.4442 10.4944V11.3322C22.4569 12.3655 22.4518 13.7593 22.4442 14.9864V18.8793C22.4447 19.3002 22.3699 19.7178 22.2233 20.1123C22.141 20.3631 22.0251 20.6017 21.8789 20.8215C21.5508 21.3193 21.1044 21.728 20.5797 22.0111C20.055 22.2942 19.4683 22.4429 18.8721 22.4438H16.9832C16.3908 22.4438 15.7654 22.4438 15.1519 22.4438H10.4661C9.52153 22.4411 8.61645 22.0647 7.94855 21.3968C7.28066 20.7289 6.90425 19.8238 6.90157 18.8793V17.2824C6.89565 16.4877 6.90157 15.5898 6.90157 14.7436V10.4936C6.90448 9.5491 7.28095 8.64414 7.9488 7.9763C8.61664 7.30845 9.5216 6.93198 10.4661 6.92908H12.0579" fill="#231F20"/>
</svg>
