<svg width="30" height="30" viewBox="0 0 30 30" fill="none" xmlns="http://www.w3.org/2000/svg">
<path fill-rule="evenodd" clip-rule="evenodd" d="M13.6851 0.0426765C5.41378 0.669494 -0.557484 7.75397 0.0414193 15.6784C0.625096 23.4007 7.20964 29.9125 15.6061 29.328C23.4316 28.7832 29.9096 22.1623 29.3251 13.6677C28.7938 5.95473 22.1052 -0.5926 13.6851 0.0426765Z" fill="white"/>
<path fill-rule="evenodd" clip-rule="evenodd" d="M15.0572 13.1323V11.7637L11.7962 11.7307L11.7793 22.8391H15.0267L15.0843 16.8484C15.0854 16.3592 15.251 15.8846 15.5546 15.5009C15.765 15.2334 16.0311 15.0151 16.3346 14.8611C16.6381 14.7071 16.9715 14.6212 17.3115 14.6093C18.742 14.5619 19.4728 15.3706 19.494 16.6209V22.8391H22.8142L22.8751 16.4551C22.8869 15.2928 22.8294 14.2075 22.2263 13.3091C20.8018 11.1859 17.1796 10.9778 15.459 12.783L15.0572 13.1323Z" fill="#231F20"/>
<path fill-rule="evenodd" clip-rule="evenodd" d="M6.52875 22.839L9.80749 22.8339L9.83371 11.7525L6.54736 11.7263L6.52875 22.839Z" fill="#231F20"/>
<path fill-rule="evenodd" clip-rule="evenodd" d="M8.18167 6.13574C8.56882 6.13574 8.94727 6.25054 9.26916 6.46563C9.59106 6.68071 9.84195 6.98642 9.9901 7.3441C10.1383 7.70177 10.177 8.09534 10.1015 8.47505C10.026 8.85475 9.83954 9.20353 9.56579 9.47729C9.29204 9.75104 8.94325 9.93747 8.56355 10.013C8.18385 10.0885 7.79027 10.0498 7.4326 9.9016C7.07492 9.75345 6.76921 9.50256 6.55413 9.18066C6.33904 8.85877 6.22424 8.48032 6.22424 8.09317C6.22424 7.57403 6.43047 7.07615 6.79756 6.70906C7.16465 6.34197 7.66253 6.13574 8.18167 6.13574Z" fill="#231F20"/>
</svg>
