<svg width="219" height="39" viewBox="0 0 219 39" fill="none" xmlns="http://www.w3.org/2000/svg">
<path d="M29.0552 32.3202L42.3403 21.1478L37.1211 35.5394H30.3837L29.0552 32.3202Z" fill="white"/>
<path d="M26.0956 32.3202L12.8105 21.1478L18.0296 35.5394H24.7671L26.0956 32.3202Z" fill="white"/>
<path d="M32.4342 35.5394C33.3152 35.5394 34.0294 34.8268 34.0294 33.9478C34.0294 33.0687 33.3152 32.3562 32.4342 32.3562C31.5533 32.3562 30.8391 33.0687 30.8391 33.9478C30.8391 34.8268 31.5533 35.5394 32.4342 35.5394Z" fill="#02C100"/>
<path d="M22.6323 35.5394C23.5133 35.5394 24.2274 34.8268 24.2274 33.9478C24.2274 33.0687 23.5133 32.3562 22.6323 32.3562C21.7513 32.3562 21.0371 33.0687 21.0371 33.9478C21.0371 34.8268 21.7513 35.5394 22.6323 35.5394Z" fill="#02C100"/>
<path d="M26.8918 37.0864H26.0957V38.6542H26.8918V37.0864Z" fill="white"/>
<path d="M29.0549 37.0864H28.2588V38.6542H29.0549V37.0864Z" fill="white"/>
<path d="M27.5525 5.18646C18.2152 5.18646 10.2914 11.2238 7.48768 19.5994H2.26782V32.9787H7.48768H8.81956V26.9096V25.6685C9.14766 15.6273 17.4089 7.58762 27.5525 7.58762C37.9042 7.58762 46.2959 15.9606 46.2959 26.2891V32.9787H47.6173H52.8476V19.5994H47.6173C44.8136 11.2238 36.8898 5.18646 27.5525 5.18646Z" fill="white"/>
<path d="M55.1155 21.4287H53.4255V31.1494H55.1155V21.4287Z" fill="white"/>
<path d="M1.68997 21.4287H0V31.1494H1.68997V21.4287Z" fill="white"/>
<path d="M38.7664 0.0539724C39.693 1.74265 40.0932 3.71401 39.8983 5.62935C42.473 4.59099 44.6163 2.52923 45.7503 0C47.3562 3.51719 47.2816 7.75559 45.5526 11.2142C45.1671 11.9851 44.5782 12.8 43.7175 12.8682C42.9306 12.9307 42.2631 12.3445 41.6581 11.8387C39.3545 9.91227 36.5738 8.68438 33.7061 7.85552C32.5287 7.51523 25.7083 6.63698 25.6836 5.83909C28.1699 5.41863 30.4946 5.23801 32.8568 4.19538C33.4857 3.91787 39.1787 0.80538 38.7664 0.0539724Z" fill="white"/>
<path d="M59.7395 12.7142L74.7415 11.7782L74.8715 13.9362L59.8695 14.8982L59.7395 12.7142ZM61.4295 16.0162H63.7955L63.7435 28.8602L74.8975 27.4042L75.1315 29.6142L61.3255 31.3042L61.4295 16.0162ZM65.0435 19.8122L72.4535 19.2922L72.6095 21.4502L65.1995 22.0482L65.0435 19.8122ZM76.5337 29.4322L83.9957 28.3662L83.9177 26.2342L76.1957 20.5402L76.9757 18.7202L86.2837 17.0302L86.6217 19.1362L79.3677 20.4102L86.0497 25.1422L86.2317 30.1342L76.8457 31.4602L76.5337 29.4322ZM93.7838 28.3922L97.3978 28.8342L98.1518 20.0462L92.1718 19.5262L92.6138 37.7782H90.3518L89.8318 17.2122L100.622 18.2002L99.4778 31.1482L93.5238 30.5502L93.7838 28.3922ZM103.431 21.3202L105.641 20.9822L106.837 29.1722L111.517 29.0422L111.985 19.5522L103.171 19.7082L103.197 17.6542L114.325 17.4722L113.623 31.0182L104.939 31.3042L103.431 21.3202ZM120.438 19.9942L124.806 17.1342L126.028 19.0062L121.712 21.8662L120.438 19.9942ZM117.864 17.2642L120.126 17.1862L120.62 31.2002L118.358 31.2782L117.864 17.2642ZM129.731 20.0202L126.845 20.2802L126.663 18.1742L129.731 17.8882V12.7402H131.993V17.7062L135.451 17.3942L135.633 19.5002L131.993 19.8122V28.9382L135.191 28.4962L135.373 30.6542L129.731 31.3302V20.0202ZM146.888 12.1682L149.332 12.0642L150.008 31.1742L147.564 31.2782L146.888 12.1682ZM157.574 14.6122L151.126 15.8602L150.736 13.6242L159.628 12.0902L162.462 30.8362L159.966 31.2262L157.574 14.6122ZM165.185 18.0182L175.611 17.0042L174.961 25.1682H169.397V23.1142H172.777L173.115 19.2402L167.577 19.8122L168.279 28.9902L176.599 27.6902L176.755 29.8222L166.199 31.3562L165.185 18.0182ZM184.12 24.6222L179.83 31.4862L177.854 30.1342L181.936 24.0242L178.036 18.5642L179.83 17.1342L184.12 23.2442L188.41 17.1342L190.204 18.5642L186.278 24.0242L190.386 30.1342L188.41 31.4862L184.12 24.6222ZM192.298 17.3942L194.612 17.1342L195.73 29.0422L199.396 28.4442L199.63 30.6542L193.65 31.4082L192.298 17.3942ZM201.034 17.2122L203.296 17.2382L202.776 31.3042L200.514 31.2782L201.034 17.2122ZM206.305 29.4322L213.767 28.3662L213.689 26.2342L205.967 20.5402L206.747 18.7202L216.055 17.0302L216.393 19.1362L209.139 20.4102L215.821 25.1422L216.003 30.1342L206.617 31.4602L206.305 29.4322Z" fill="white"/>
</svg>
