<svg width="30" height="30" viewBox="0 0 30 30" fill="none" xmlns="http://www.w3.org/2000/svg">
<path fill-rule="evenodd" clip-rule="evenodd" d="M13.2759 0.0907373C9.44385 0.533351 5.85047 2.2708 3.58408 5.0839C2.42211 6.52261 1.63759 7.66595 0.860693 9.725C0.155726 11.5869 -0.142171 13.9472 0.0643258 16.0985C0.795528 23.7262 7.50244 30.1284 16.1237 29.31C23.7074 28.5898 30.1265 21.822 29.2879 13.2244C28.5101 5.24723 21.1752 -0.820726 13.2759 0.0907373Z" fill="white"/>
<path fill-rule="evenodd" clip-rule="evenodd" d="M15.6363 18.1313C15.6498 21.8491 12.1064 21.8609 10.8124 20.4629C10.0761 19.6665 9.9263 18.1254 10.5746 17.1149C11.2643 16.0401 12.0742 15.8641 13.6805 15.9648L13.6957 12.7277C10.9452 12.06 8.50452 14.1461 7.65315 15.6474C6.39385 17.8681 6.85001 21.0172 8.39366 22.5871C12.4906 26.7534 18.9013 23.8929 18.9005 18.4224V12.4053C19.4811 12.9132 20.1772 13.2713 20.9281 13.4484C21.6789 13.6254 22.4617 13.6159 23.2081 13.4208L23.3342 13.4157L23.3706 10.2523C22.1836 10.2091 21.0565 9.71971 20.2146 8.88175C19.3727 8.04379 18.878 6.91902 18.8294 5.73219L15.6397 5.6958V18.1313" fill="#231F20"/>
</svg>
