<svg width="30" height="30" viewBox="0 0 30 30" fill="none" xmlns="http://www.w3.org/2000/svg">
<path fill-rule="evenodd" clip-rule="evenodd" d="M13.6605 0.0421269C5.83871 0.62603 -0.575764 7.25968 0.0411425 15.8067C0.597966 23.5252 7.34416 29.9447 15.8158 29.3219C23.465 28.7592 29.92 22.0705 29.3235 13.6606C28.7717 5.92855 22.0915 -0.587473 13.6605 0.0421269Z" fill="white"/>
<path fill-rule="evenodd" clip-rule="evenodd" d="M5.83874 23.9618C7.11402 23.8171 8.67194 23.4998 9.94299 23.2662C11.0744 23.0597 10.895 23.24 11.8606 23.5514C15.1609 24.6151 19.035 23.5218 21.0177 21.4705C22.8219 19.6029 23.9287 17.7386 23.9677 14.8352C23.9886 13.553 23.7438 12.2804 23.2487 11.0975C22.7536 9.91467 22.0188 8.84716 21.0908 7.96226C20.1627 7.07736 19.0614 6.39426 17.8563 5.95598C16.6512 5.5177 15.3684 5.33375 14.0887 5.41572C10.983 5.61543 9.14414 7.04473 7.65731 8.59334C5.54171 10.7893 4.82834 14.6642 5.9166 17.7843C6.17047 18.5087 6.52081 18.7879 6.40149 19.646C6.22209 20.9357 5.89375 22.6671 5.83959 23.9618" fill="#231F20"/>
<path fill-rule="evenodd" clip-rule="evenodd" d="M7.72677 22.0495C8.53661 21.9648 10.6251 21.4089 11.1777 21.6179C12.3447 22.0579 12.893 22.3913 14.3799 22.4438C21.7184 22.7053 25.0712 13.6692 20.0014 9.02165C14.6972 4.16087 6.18239 8.42928 6.95754 15.459C7.06992 16.5219 7.39789 17.5507 7.9214 18.4826C8.34452 19.2442 7.82493 21.0864 7.72677 22.0495Z" fill="white"/>
<path fill-rule="evenodd" clip-rule="evenodd" d="M12.381 13.4617C12.7059 13.0276 13.1891 12.8998 12.8413 11.9215C12.656 11.4028 12.3641 10.4127 11.9257 10.3137C11.3545 10.1842 9.7255 11.3909 10.2519 13.251C11.0981 16.2424 13.8061 18.6136 16.5487 19.2592C17.543 19.4953 17.9628 19.2279 18.4494 18.7084C18.7684 18.3699 19.4073 17.7259 18.8725 17.2181C16.7569 15.1982 16.8415 17.0988 16.0223 17.2351C15.4689 17.3264 12.6763 15.2041 12.3776 13.4583" fill="#231F20"/>
</svg>
