<?xml version="1.0" encoding="utf-8"?>
<!-- Generator: Adobe Illustrator 25.0.0, SVG Export Plug-In . SVG Version: 6.00 Build 0)  -->
<svg version="1.1" id="Uploaded_to_svgrepo.com" xmlns="http://www.w3.org/2000/svg" xmlns:xlink="http://www.w3.org/1999/xlink"
	 x="0px" y="0px" viewBox="0 0 750 750" style="enable-background:new 0 0 750 750;" xml:space="preserve">
<style type="text/css">
	.st0{fill:#FF8C00;}
</style>
<path class="st0" d="M550,725c0,13.8-11.2,25-25,25H225c-13.8,0-25-11.2-25-25s11.2-25,25-25h300C538.8,700,550,711.2,550,725z
	 M750,75v100c0,80.1-50.8,138.1-126.2,148.2C613.6,433.7,531.7,523.3,425,545v55h50c13.7,0,25,11.2,25,25v50H250v-50
	c0-13.8,11.2-25,25-25h50v-55c-106.7-21.6-188.6-111.3-198.8-221.7C50.8,313.1,0,255.1,0,175V75C0,20,44.9,0,75,0h600
	C705.1,0,750,20,750,75z M125,50H75c-11.2,0.3-25,4.9-25,25v100c0,51.9,28.8,87.9,75,97.3V50z M400,475c0-13.8-11.2-25-25-25
	c-82.7,0-150-67.3-150-150c0-13.8-11.2-25-25-25s-25,11.2-25,25c0,110.3,89.7,200,200,200C388.8,500,400,488.8,400,475z M700,75
	c0-20.1-13.8-24.7-25.3-25H625v222.3c46.2-9.5,75-45.4,75-97.3V75z"/>
</svg>
