<svg xmlns="http://www.w3.org/2000/svg" viewBox="0 0 357.47 54.41"><defs><style>.cls-1{fill:#ffa600;}.cls-2{fill:#ffdf40;}.cls-3{fill:#635947;}</style></defs><g id="Layer_2" data-name="Layer 2"><g id="OBJECTS"><polygon class="cls-1" points="28.61 2.72 36.47 18.64 54.04 21.19 41.32 33.59 44.32 51.09 28.61 42.83 12.89 51.09 15.89 33.59 3.18 21.19 20.75 18.64 28.61 2.72"/><polygon class="cls-2" points="29.59 26.62 29.59 0 37.45 15.92 29.59 26.62"/><polygon class="cls-2" points="31.79 28.61 39.64 17.91 57.21 20.46 31.79 28.61"/><polygon class="cls-2" points="30.57 32.66 43.29 36.91 46.29 54.41 30.57 32.66"/><path class="cls-2" d="M26.65,32.66V46.15L10.93,54.41S27.7,31.78,26.65,32.66Z"/><polygon class="cls-2" points="25.43 28.61 0 20.46 17.57 17.91 25.43 28.61"/><polygon class="cls-1" points="104.47 2.72 112.32 18.64 129.89 21.19 117.18 33.59 120.18 51.09 104.47 42.83 88.75 51.09 91.75 33.59 79.04 21.19 96.61 18.64 104.47 2.72"/><polygon class="cls-2" points="105.45 26.62 105.45 0 113.31 15.92 105.45 26.62"/><polygon class="cls-2" points="107.64 28.61 115.5 17.91 133.07 20.46 107.64 28.61"/><polygon class="cls-2" points="106.43 32.66 119.14 36.91 122.14 54.41 106.43 32.66"/><path class="cls-2" d="M102.51,32.66V46.15L86.79,54.41S103.56,31.78,102.51,32.66Z"/><polygon class="cls-2" points="101.29 28.61 75.86 20.46 93.43 17.91 101.29 28.61"/><polygon class="cls-3" points="180.32 2.72 188.18 18.64 205.75 21.19 193.04 33.59 196.04 51.09 180.32 42.83 164.61 51.09 167.61 33.59 154.9 21.19 172.47 18.64 180.32 2.72"/><polygon class="cls-3" points="256.18 2.72 264.04 18.64 281.61 21.19 268.89 33.59 271.9 51.09 256.18 42.83 240.47 51.09 243.47 33.59 230.75 21.19 248.32 18.64 256.18 2.72"/><polygon class="cls-3" points="332.04 2.72 339.9 18.64 357.47 21.19 344.75 33.59 347.75 51.09 332.04 42.83 316.32 51.09 319.32 33.59 306.61 21.19 324.18 18.64 332.04 2.72"/></g></g></svg>