<?xml version="1.0" encoding="utf-8"?>
<!-- Generator: Adobe Illustrator 25.0.0, SVG Export Plug-In . SVG Version: 6.00 Build 0)  -->
<svg version="1.1" id="Layer_1" xmlns="http://www.w3.org/2000/svg" xmlns:xlink="http://www.w3.org/1999/xlink" x="0px" y="0px"
	 viewBox="0 0 55.1 38.7" style="enable-background:new 0 0 55.1 38.7;" xml:space="preserve">
<style type="text/css">
	.st0{fill:#FFFFFF;}
	.st1{fill:#02C100;}
</style>
<g>
	<path class="st0" d="M29.1,32.3l13.3-11.2l-5.2,14.4h-6.7L29.1,32.3z"/>
	<path class="st0" d="M26.1,32.3L12.8,21.1L18,35.5h6.7L26.1,32.3z"/>
	<path class="st1" d="M32.4,35.5c0.9,0,1.6-0.7,1.6-1.6c0-0.9-0.7-1.6-1.6-1.6c-0.9,0-1.6,0.7-1.6,1.6
		C30.8,34.8,31.6,35.5,32.4,35.5z"/>
	<path class="st1" d="M22.6,35.5c0.9,0,1.6-0.7,1.6-1.6c0-0.9-0.7-1.6-1.6-1.6S21,33.1,21,33.9C21,34.8,21.8,35.5,22.6,35.5z"/>
	<path class="st0" d="M26.9,37.1h-0.8v1.6h0.8V37.1z"/>
	<path class="st0" d="M29.1,37.1h-0.8v1.6h0.8V37.1z"/>
	<path class="st0" d="M27.6,5.2c-9.3,0-17.3,6-20.1,14.4H2.3V33h5.2h1.3v-6.1v-1.2c0.3-10,8.6-18.1,18.7-18.1
		c10.4,0,18.7,8.4,18.7,18.7V33h1.3h5.2V19.6h-5.2C44.8,11.2,36.9,5.2,27.6,5.2z"/>
	<path class="st0" d="M55.1,21.4h-1.7v9.7h1.7V21.4z"/>
	<path class="st0" d="M1.7,21.4H0v9.7h1.7V21.4z"/>
	<path class="st0" d="M38.8,0.1c0.9,1.7,1.3,3.7,1.1,5.6c2.6-1,4.7-3.1,5.9-5.6c1.6,3.5,1.5,7.8-0.2,11.2c-0.4,0.8-1,1.6-1.8,1.7
		c-0.8,0.1-1.5-0.5-2.1-1c-2.3-1.9-5.1-3.2-8-4c-1.2-0.3-8-1.2-8-2c2.5-0.4,4.8-0.6,7.2-1.6C33.5,3.9,39.2,0.8,38.8,0.1z"/>
</g>
</svg>
