<?xml version="1.0" encoding="utf-8"?>
<!-- Generator: Adobe Illustrator 25.0.0, SVG Export Plug-In . SVG Version: 6.00 Build 0)  -->
<svg version="1.1"
	 id="svg41117" xmlns:cc="http://creativecommons.org/ns#" xmlns:dc="http://purl.org/dc/elements/1.1/" xmlns:rdf="http://www.w3.org/1999/02/22-rdf-syntax-ns#" xmlns:svg="http://www.w3.org/2000/svg"
	 xmlns="http://www.w3.org/2000/svg" xmlns:xlink="http://www.w3.org/1999/xlink" x="0px" y="0px" viewBox="0 0 200 154.8"
	 style="enable-background:new 0 0 200 154.8;" xml:space="preserve">
<style type="text/css">
	.st0{fill-rule:evenodd;clip-rule:evenodd;fill:#FFFFFF;}
</style>
<path id="path-1" class="st0" d="M197.2,118c-3.9,4.9-13.3,8.4-13.3,8.4l-70.5,25.3V133l51.9-18.5c5.9-2.1,6.8-5.1,2-6.7
	c-4.8-1.6-13.4-1.1-19.3,1L113.4,121v-19.4l2-0.7c0,0,10-3.5,24-5.1c14-1.5,31.2,0.2,44.7,5.3C199.4,106,201.1,113.1,197.2,118z
	 M120.1,86.2V38.4c0-5.6-1-10.8-6.3-12.2c-4-1.3-6.5,2.5-6.5,8.1v119.6L75,143.6V1c13.7,2.5,33.7,8.6,44.4,12.2
	c27.3,9.4,36.6,21,36.6,47.3C156,86.2,140.2,95.9,120.1,86.2z M15.9,131c-15.6-4.4-18.2-13.6-11.1-18.8c6.6-4.9,17.8-8.5,17.8-8.5
	l46.2-16.4v18.7l-33.3,11.9c-5.9,2.1-6.8,5.1-2,6.7c4.8,1.6,13.4,1.1,19.3-1l16-5.8v16.8c-1,0.2-2.1,0.4-3.2,0.5
	C49.6,137.6,32.6,136.5,15.9,131L15.9,131z M187,138.4c2,0,3.9,0.8,5.3,2.2c1.4,1.4,2.2,3.3,2.2,5.3c0,2-0.8,3.9-2.2,5.3
	c-1.4,1.4-3.3,2.2-5.3,2.2s-3.9-0.8-5.3-2.2c-1.4-1.4-2.2-3.3-2.2-5.3C179.4,141.8,182.8,138.4,187,138.4z M180.7,146
	c0,1.7,0.7,3.3,1.8,4.4c1.2,1.2,2.8,1.8,4.4,1.8c3.5,0,6.3-2.8,6.3-6.3c0-1.7-0.6-3.3-1.8-4.4c-1.2-1.2-2.8-1.8-4.4-1.8
	s-3.3,0.6-4.4,1.8C181.3,142.7,180.7,144.3,180.7,146z M189.2,141.9c0.8,0.4,1.2,1.1,1.2,2.1c0,0.5-0.1,0.9-0.3,1.3
	c-0.2,0.2-0.4,0.4-0.6,0.6c0.2,0.1,0.4,0.3,0.5,0.4c0.2,0.2,0.3,0.6,0.3,1.1l0,1.1c0,0.3,0,0.5,0.1,0.6c0,0.2,0.1,0.3,0.2,0.4
	l0.1,0.1v0.1v0.2v0.2h-0.2h-1.3h-0.1l-0.1-0.1c0-0.1-0.1-0.2-0.1-0.3c0-0.1,0-0.3-0.1-0.7l-0.1-1.3c0-0.5-0.2-0.8-0.5-0.9
	c-0.2-0.1-0.5-0.1-0.9-0.1h-2.3v3.3v0.2H185h-1.1h-0.2v-0.2v-8v-0.2h0.2h3.7C188.3,141.6,188.8,141.7,189.2,141.9L189.2,141.9z
	 M185.2,145.3h2.3c0.5,0,0.8-0.1,1.1-0.3c0.2-0.2,0.4-0.5,0.4-1c0-0.5-0.2-0.8-0.5-1c-0.2-0.1-0.5-0.1-0.8-0.1h-2.5L185.2,145.3
	L185.2,145.3z"/>
</svg>
