<svg width="30" height="30" viewBox="0 0 30 30" fill="none" xmlns="http://www.w3.org/2000/svg">
<path fill-rule="evenodd" clip-rule="evenodd" d="M13.3529 0.058079C5.71748 0.723283 -0.689976 7.4735 0.0598598 15.995C0.736912 23.6424 7.48035 30.0634 15.9892 29.3042C23.6797 28.6178 30.0609 21.8702 29.3001 13.3012C28.6239 5.67423 21.8466 -0.677369 13.3529 0.058079Z" fill="white"/>
<path fill-rule="evenodd" clip-rule="evenodd" d="M18.5341 11.4087C18.7034 11.9715 17.7919 12.6782 17.4931 12.9482C17.0074 13.3815 16.574 13.8436 16.1052 14.2727C15.6363 14.7017 15.2013 15.1681 14.7189 15.598C14.1747 16.0821 13.8244 16.4358 13.2802 16.9741C12.5667 17.6664 12.5185 18.1285 13.0424 18.5017L17.9899 22.0198C19.6876 23.2267 20.5983 22.5352 20.9106 20.6209L22.6447 8.63197C22.5676 7.78565 21.9812 7.59946 21.36 7.85844L7.3839 13.698C5.71666 14.4326 4.49373 15.0369 4.83734 15.185L8.28692 16.672C9.75528 17.3059 10.5999 16.2708 11.7247 15.5142L16.6384 12.195C17.092 11.8886 17.8858 11.1396 18.5299 11.4079" fill="#231F20"/>
</svg>
