<svg width="30" height="30" viewBox="0 0 30 30" fill="none" xmlns="http://www.w3.org/2000/svg">
<path fill-rule="evenodd" clip-rule="evenodd" d="M13.6732 0.0380045C5.8831 0.587066 -0.579586 7.26802 0.0413863 15.7882C0.606522 23.5444 7.31709 29.9073 15.8246 29.3109C23.4717 28.7745 29.9614 22.0047 29.3176 13.5962C28.7263 5.87464 22.0851 -0.55505 13.6732 0.0380045Z" fill="white"/>
<path fill-rule="evenodd" clip-rule="evenodd" d="M14.8052 12.0573C11.1673 12.2671 8.82385 10.6284 7.02184 8.21555C6.26805 10.1132 6.38734 12.0226 8.24179 13.207C7.66989 13.2916 7.11152 13.1224 6.56077 12.8162C6.85264 14.7781 7.7731 16.0014 9.34753 16.4582C8.83146 16.6274 8.11912 16.5631 7.51761 16.4988C8.01168 18.0648 9.36953 19.0005 11.0912 19.1731C9.90674 20.8296 7.97953 20.8761 5.97702 20.7526C6.87464 21.6231 10.0252 22.305 11.6656 22.2932C13.6689 22.2783 15.6316 21.7264 17.3491 20.6951C18.7603 19.8533 20.108 18.5225 20.9472 17.0268C22.0056 15.141 22.2873 13.6114 22.2763 11.0886L23.9742 9.31875L22.19 9.79421L22.338 9.61654L23.6181 7.79254L21.6249 8.66309C21.4438 8.74261 21.2357 8.59456 20.9997 8.38983C19.0208 6.67665 14.4854 7.38138 14.8068 12.0564" fill="#231F20"/>
</svg>
