<?xml version="1.0" encoding="utf-8"?>
<!-- Generator: Adobe Illustrator 25.0.0, SVG Export Plug-In . SVG Version: 6.00 Build 0)  -->
<svg version="1.1"
	 id="svg4136" inkscape:version="0.91pre4 r13712" sodipodi:docname="Xbox Logo.svg" xmlns:cc="http://creativecommons.org/ns#" xmlns:dc="http://purl.org/dc/elements/1.1/" xmlns:inkscape="http://www.inkscape.org/namespaces/inkscape" xmlns:rdf="http://www.w3.org/1999/02/22-rdf-syntax-ns#" xmlns:sodipodi="http://sodipodi.sourceforge.net/DTD/sodipodi-0.dtd" xmlns:svg="http://www.w3.org/2000/svg"
	 xmlns="http://www.w3.org/2000/svg" xmlns:xlink="http://www.w3.org/1999/xlink" x="0px" y="0px" viewBox="0 0 372.4 372.6"
	 style="enable-background:new 0 0 372.4 372.6;" xml:space="preserve">
<style type="text/css">
	.st0{fill:#FFFFFF;}
</style>
<sodipodi:namedview  bordercolor="#666666" borderopacity="1" fit-margin-bottom="0" fit-margin-left="0" fit-margin-right="0" fit-margin-top="0" gridtolerance="10" guidetolerance="10" id="namedview4138" inkscape:current-layer="g4146" inkscape:cx="120.11921" inkscape:cy="190.18765" inkscape:pageopacity="0" inkscape:pageshadow="2" inkscape:window-height="1017" inkscape:window-maximized="1" inkscape:window-width="1920" inkscape:window-x="-8" inkscape:window-y="-8" inkscape:zoom="2.2378738" objecttolerance="10" pagecolor="#ffffff" showgrid="false">
	</sodipodi:namedview>
<g id="g4146" transform="translate(-1.5706619,12.357467)">
	<path id="path4148" inkscape:connector-curvature="0" class="st0" d="M169.2,359.4c-28.7-2.7-57.7-13-82.7-29.3
		c-20.9-13.6-25.6-19.2-25.6-30.4c0-22.5,24.7-61.8,67-106.7c24-25.5,57.5-55.4,61.1-54.6c7,1.6,63.3,56.4,84.3,82.2
		c33.3,40.8,48.6,74.2,40.8,89.1c-5.9,11.3-42.6,33.5-69.5,42C222.4,358.8,193.2,361.7,169.2,359.4L169.2,359.4z M32.7,276.3
		c-17.4-26.6-26.1-52.9-30.4-90.8c-1.4-12.5-0.9-19.7,3.2-45.4c5.1-32.1,23.3-69.1,45.3-92c9.3-9.7,10.2-10,21.6-6.1
		c13.8,4.7,28.6,14.9,51.5,35.6l13.4,12.1l-7.3,9C96,140.2,60.2,199.2,46.7,235.7c-7.3,19.8-10.3,39.8-7.1,48
		C41.7,289.3,39.8,287.3,32.7,276.3z M337.6,280.9c1.7-8.4-0.5-23.8-5.5-39.3c-11-33.6-47.8-96.1-81.7-138.6l-10.6-13.4L251.3,79
		c15-13.8,25.5-22.1,36.7-29.1c8.9-5.5,21.6-10.4,27.1-10.4c3.4,0,15.2,12.3,24.8,25.7c14.8,20.8,25.7,46,31.2,72.2
		c3.6,16.9,3.9,53.2,0.6,70.1c-2.7,13.9-8.4,31.9-14,44.1c-4.2,9.1-14.5,26.9-19.1,32.7C336.3,287.3,336.3,287.3,337.6,280.9
		L337.6,280.9z M172.3,33.1c-15.6-7.9-39.7-16.4-53-18.7c-4.7-0.8-12.6-1.2-17.7-1c-11,0.6-10.5,0,7.1-8.3
		c14.6-6.9,26.8-11,43.4-14.5c18.6-3.9,53.7-4,72-0.1c19.8,4.2,43.1,12.9,56.3,20.9l3.9,2.4l-9-0.5c-17.8-0.9-43.8,6.3-71.6,19.9
		c-8.4,4.1-15.7,7.4-16.2,7.3C187,40.4,180.1,37.1,172.3,33.1z"/>
</g>
</svg>
