<svg width="30" height="30" viewBox="0 0 30 30" fill="none" xmlns="http://www.w3.org/2000/svg">
<path fill-rule="evenodd" clip-rule="evenodd" d="M13.3569 0.115364C8.53787 0.727353 5.73897 2.85549 3.55119 5.31382C1.27698 7.86896 -0.443162 12.1045 0.101405 16.7722C0.993458 24.3944 7.91637 30.9309 16.7695 29.898C24.3623 29.0111 30.9014 22.109 29.8979 13.3017C29.3861 8.8146 27.0851 5.59561 24.6942 3.56861C22.101 1.37305 18.0272 -0.479338 13.3603 0.111042" fill="white"/>
<path fill-rule="evenodd" clip-rule="evenodd" d="M9.14209 8.54419H20.8667C21.7572 8.54693 22.6104 8.90188 23.2401 9.53155C23.8698 10.1612 24.2247 11.0145 24.2275 11.9049V18.1718C24.2247 19.0623 23.8698 19.9155 23.2401 20.5452C22.6104 21.1749 21.7572 21.5298 20.8667 21.5325H9.14209C8.25175 21.5296 7.39874 21.1745 6.76925 20.5449C6.13977 19.9152 5.78493 19.0621 5.7822 18.1718V11.9049C5.78493 11.0146 6.13977 10.1615 6.76925 9.53186C7.39874 8.90221 8.25175 8.54715 9.14209 8.54419Z" fill="#231F20"/>
<path fill-rule="evenodd" clip-rule="evenodd" d="M17.8932 14.9641L13.165 12.262L13.1451 17.7076L17.8932 14.9641Z" fill="white"/>
</svg>
